<svg width="264" height="75" viewBox="0 0 264 75" fill="none" xmlns="http://www.w3.org/2000/svg">
<g clip-path="url(#clip0_276_106)">
<path d="M26.6338 33.9286V75" stroke="#008D78" stroke-width="2.69195"/>
<path d="M26.6333 0C33.5127 6.84524 44.9386 25.1786 26.6333 34.8214C8.32802 25.1786 19.7539 6.84524 26.6333 0Z" fill="#008D78"/>
<path d="M5.241 36.3829C12.8853 35.6343 29.6495 37.894 25.5808 53.8984C10.2469 60.2018 5.59349 44.0179 5.241 36.3829Z" fill="#008D78"/>
<rect x="26.6172" y="40.7462" width="238.02" height="24.4477" fill="#008D78"/>
<path d="M77.5626 10.9658C77.6117 10.9658 77.6363 11.0395 77.6363 11.1869C77.6363 11.3343 77.6117 11.408 77.5626 11.408C75.6216 11.408 74.3808 12.3785 73.8403 14.3196L68.0909 33.9631C68.0909 34.0614 67.9558 34.1106 67.6855 34.1106C67.4398 34.1106 67.3047 34.0614 67.2801 33.9631L60.2408 14.7987L54.4915 33.9631C54.4915 34.0614 54.3564 34.1106 54.0861 34.1106C53.865 34.1106 53.7176 34.0614 53.6438 33.9631L46.6046 14.0247C46.2852 13.0665 45.8798 12.3908 45.3884 11.9977C44.897 11.6046 44.2582 11.408 43.4719 11.408C43.3982 11.408 43.3614 11.3343 43.3614 11.1869C43.3614 11.0395 43.3982 10.9658 43.4719 10.9658L44.8724 11.0026C45.5604 11.0518 46.1132 11.0763 46.5309 11.0763C47.8085 11.0763 49.0616 11.0518 50.2901 11.0026C50.6586 10.9781 51.15 10.9658 51.7643 10.9658C51.838 10.9658 51.8748 11.0395 51.8748 11.1869C51.8748 11.3343 51.838 11.408 51.7643 11.408C49.8724 11.408 48.9264 11.9363 48.9264 12.9928C48.9264 13.2139 48.9879 13.5088 49.1107 13.8773L54.8232 29.9828L60.4988 10.9658C60.548 10.8921 60.6831 10.8552 60.9042 10.8552C61.1745 10.8552 61.3096 10.8921 61.3096 10.9658L68.3857 30.0565L72.9557 14.209C73.054 13.9142 73.1032 13.6193 73.1032 13.3245C73.1032 12.0468 71.9484 11.408 69.6388 11.408C69.5651 11.408 69.5282 11.3343 69.5282 11.1869C69.5282 11.0395 69.5651 10.9658 69.6388 10.9658L71.4816 11.0026C72.5626 11.0518 73.4963 11.0763 74.2825 11.0763C74.7739 11.0763 75.339 11.0518 75.9778 11.0026L77.5626 10.9658ZM91.0281 29.7289C91.0281 29.6907 91.0663 29.6716 91.1427 29.6716C91.2001 29.6716 91.2478 29.6812 91.2861 29.7003C91.3434 29.7194 91.372 29.7481 91.372 29.7863C91.2001 30.9902 91.1141 32.2514 91.1141 33.57C91.1141 33.7229 91.0758 33.8376 90.9994 33.914C90.9421 33.9713 90.8274 34 90.6554 34H78.6449C78.6067 34 78.5875 33.9427 78.5875 33.828C78.5875 33.7134 78.6067 33.656 78.6449 33.656C79.371 33.656 79.8966 33.6082 80.2214 33.5127C80.5654 33.4171 80.7947 33.2356 80.9094 32.9681C81.0432 32.6814 81.11 32.2514 81.11 31.6782V18.4063C81.11 17.833 81.0432 17.4126 80.9094 17.1451C80.7947 16.8776 80.5654 16.696 80.2214 16.6005C79.8966 16.4858 79.371 16.4285 78.6449 16.4285C78.6067 16.4285 78.5875 16.3711 78.5875 16.2565C78.5875 16.1418 78.6067 16.0845 78.6449 16.0845H90.1681C90.3401 16.0845 90.4261 16.1705 90.4261 16.3425L90.4834 19.8682C90.4834 19.9256 90.4357 19.9638 90.3401 19.9829C90.2446 19.9829 90.1872 19.9542 90.1681 19.8969C90.1108 18.8841 89.805 18.1006 89.2509 17.5464C88.6967 16.9731 87.9609 16.6865 87.0437 16.6865H85.2951C84.6263 16.6865 84.1294 16.7438 83.8045 16.8584C83.4988 16.954 83.279 17.1355 83.1452 17.4031C83.0306 17.6515 82.9733 18.0337 82.9733 18.5497V24.3686H86.4704C87.3876 24.3686 88.0374 24.2157 88.4196 23.91C88.8209 23.6042 89.0215 23.0883 89.0215 22.3621C89.0215 22.3239 89.0789 22.3048 89.1935 22.3048C89.3082 22.3048 89.3655 22.3239 89.3655 22.3621L89.3368 24.6839C89.3368 25.2381 89.3464 25.6585 89.3655 25.9452L89.3942 27.3211C89.3942 27.3593 89.3368 27.3784 89.2222 27.3784C89.1075 27.3784 89.0502 27.3593 89.0502 27.3211C89.0502 26.4803 88.84 25.8783 88.4196 25.5152C88.0183 25.1521 87.3399 24.9706 86.3844 24.9706H82.9733V31.5635C82.9733 32.0986 83.0306 32.4903 83.1452 32.7387C83.2599 32.9872 83.4701 33.1592 83.7759 33.2547C84.0816 33.3503 84.5594 33.398 85.2091 33.398H87.5023C88.4196 33.398 89.184 33.0732 89.7955 32.4234C90.407 31.7737 90.8179 30.8755 91.0281 29.7289ZM96.9648 19.4383C96.9648 20.1836 97.1464 20.8333 97.5095 21.3875C97.8725 21.9417 98.3121 22.4099 98.828 22.7921C99.344 23.1551 100.07 23.6233 101.007 24.1966C102 24.789 102.774 25.2859 103.328 25.6872C103.883 26.0885 104.351 26.6045 104.733 27.2351C105.134 27.8466 105.335 28.5824 105.335 29.4423C105.335 30.3596 105.106 31.1908 104.647 31.9361C104.188 32.6814 103.51 33.2738 102.612 33.7134C101.733 34.1338 100.672 34.344 99.43 34.344C97.9585 34.344 96.6113 34.0096 95.3883 33.3407C95.2927 33.2834 95.2258 33.2165 95.1876 33.1401C95.1685 33.0636 95.1494 32.949 95.1303 32.7961L94.7576 28.8977C94.7385 28.8212 94.7767 28.7734 94.8723 28.7543C94.9869 28.7352 95.0538 28.7639 95.0729 28.8403C95.3787 30.2162 95.9424 31.4011 96.7642 32.3948C97.605 33.3885 98.7134 33.8853 100.089 33.8853C101.045 33.8853 101.847 33.6274 102.497 33.1114C103.166 32.5763 103.5 31.7355 103.5 30.5889C103.5 29.7289 103.309 28.9837 102.927 28.353C102.545 27.7224 102.077 27.2064 101.523 26.8051C100.987 26.3847 100.252 25.8974 99.3153 25.3432C98.3981 24.789 97.6719 24.3113 97.1368 23.91C96.6208 23.5087 96.1813 23.0023 95.8182 22.3908C95.4551 21.7792 95.2736 21.0626 95.2736 20.2409C95.2736 19.2854 95.522 18.4732 96.0189 17.8044C96.5348 17.1164 97.1941 16.61 97.9968 16.2851C98.8185 15.9412 99.688 15.7692 100.605 15.7692C101.733 15.7692 102.851 15.9985 103.959 16.4571C104.246 16.5527 104.389 16.7151 104.389 16.9444L104.59 20.2409C104.59 20.3173 104.542 20.3556 104.446 20.3556C104.351 20.3556 104.293 20.3173 104.274 20.2409C104.121 19.2472 103.711 18.3299 103.042 17.4891C102.373 16.6291 101.408 16.1992 100.147 16.1992C99.0765 16.1992 98.2738 16.5145 97.7388 17.1451C97.2228 17.7566 96.9648 18.521 96.9648 19.4383ZM112.307 16.6005C111.103 16.6005 110.195 16.9062 109.583 17.5177C108.991 18.1292 108.561 19.1707 108.293 20.6422C108.293 20.6804 108.236 20.6995 108.121 20.6995C108.026 20.6995 107.978 20.6804 107.978 20.6422C108.055 19.9542 108.141 19.0561 108.236 17.9477C108.332 16.8393 108.379 16.0081 108.379 15.4539C108.379 15.3583 108.427 15.3105 108.523 15.3105C108.637 15.3105 108.695 15.3583 108.695 15.4539C108.695 15.8743 109.211 16.0845 110.243 16.0845C111.867 16.1418 113.788 16.1705 116.004 16.1705C117.132 16.1705 118.326 16.1514 119.587 16.1132L121.537 16.0845C122.225 16.0845 122.731 16.0367 123.056 15.9412C123.4 15.8456 123.62 15.6545 123.715 15.3679C123.734 15.2914 123.792 15.2532 123.887 15.2532C123.983 15.2532 124.03 15.2914 124.03 15.3679C123.973 15.9221 123.916 16.7629 123.858 17.8904C123.801 19.0179 123.772 19.9351 123.772 20.6422C123.772 20.6804 123.715 20.6995 123.6 20.6995C123.486 20.6995 123.428 20.6804 123.428 20.6422C123.371 19.1516 123.065 18.1101 122.511 17.5177C121.957 16.9062 121.04 16.6005 119.759 16.6005C118.899 16.6005 118.288 16.6387 117.925 16.7151C117.562 16.7916 117.313 16.954 117.18 17.2024C117.046 17.4509 116.979 17.8713 116.979 18.4637V31.6782C116.979 32.2706 117.046 32.7005 117.18 32.9681C117.313 33.2356 117.571 33.4171 117.954 33.5127C118.336 33.6082 118.938 33.656 119.759 33.656C119.817 33.656 119.845 33.7134 119.845 33.828C119.845 33.9427 119.817 34 119.759 34C119.129 34 118.622 33.9904 118.24 33.9713L116.004 33.9427L113.854 33.9713C113.472 33.9904 112.947 34 112.278 34C112.24 34 112.221 33.9427 112.221 33.828C112.221 33.7134 112.24 33.656 112.278 33.656C113.1 33.656 113.702 33.6082 114.084 33.5127C114.466 33.4171 114.724 33.2356 114.858 32.9681C115.011 32.6814 115.087 32.2514 115.087 31.6782V18.4063C115.087 17.8139 115.02 17.4031 114.886 17.1738C114.753 16.9253 114.504 16.7724 114.141 16.7151C113.778 16.6387 113.166 16.6005 112.307 16.6005ZM147.069 10.5604C148.249 10.5604 149.44 10.6709 150.644 10.8921C151.848 11.1132 152.806 11.4326 153.519 11.8503C153.74 11.9486 153.875 12.0591 153.924 12.182C153.998 12.2803 154.047 12.4645 154.072 12.7348L154.477 16.8625C154.477 16.9362 154.416 16.9854 154.293 17.01C154.17 17.01 154.096 16.9731 154.072 16.8994C153.531 15.0075 152.524 13.6193 151.05 12.7348C149.6 11.8257 147.794 11.3712 145.632 11.3712C143.765 11.3712 142.131 11.7889 140.73 12.6242C139.33 13.435 138.249 14.5898 137.487 16.0886C136.725 17.5873 136.345 19.3195 136.345 21.2851C136.345 23.5701 136.811 25.6831 137.745 27.6241C138.703 29.5651 139.981 31.1008 141.578 32.231C143.2 33.3612 144.944 33.9263 146.811 33.9263C148.58 33.9263 150.116 33.4472 151.418 32.489C152.72 31.5062 153.716 30.0074 154.403 27.9927C154.403 27.919 154.453 27.8821 154.551 27.8821C154.625 27.8821 154.686 27.8944 154.735 27.919C154.809 27.9435 154.846 27.9804 154.846 28.0295L154.33 32.1941C154.281 32.489 154.219 32.6855 154.145 32.7838C154.096 32.8575 153.961 32.9435 153.74 33.0418C151.529 33.9754 149.195 34.4423 146.738 34.4423C143.789 34.4423 141.32 33.8526 139.33 32.6732C137.364 31.4693 135.915 29.946 134.981 28.1032C134.047 26.2605 133.581 24.3195 133.581 22.2802C133.581 20.0198 134.207 17.9928 135.46 16.1992C136.713 14.4056 138.372 13.0174 140.436 12.0346C142.499 11.0518 144.711 10.5604 147.069 10.5604ZM166.92 34.344C165.143 34.344 163.556 33.9331 162.161 33.1114C160.786 32.2706 159.715 31.1431 158.951 29.7289C158.206 28.2957 157.833 26.7382 157.833 25.0566C157.833 23.0883 158.33 21.4066 159.324 20.0116C160.317 18.5974 161.588 17.5368 163.136 16.8298C164.703 16.1227 166.299 15.7692 167.923 15.7692C169.738 15.7692 171.334 16.1992 172.71 17.0591C174.086 17.8999 175.137 19.0179 175.863 20.4129C176.608 21.8079 176.981 23.2889 176.981 24.8559C176.981 26.5949 176.522 28.1906 175.605 29.6429C174.688 31.0953 173.455 32.2419 171.907 33.0827C170.379 33.9236 168.716 34.344 166.92 34.344ZM167.923 33.742C169.223 33.742 170.388 33.4267 171.42 32.7961C172.471 32.1655 173.293 31.2386 173.885 30.0156C174.497 28.7926 174.803 27.3402 174.803 25.6585C174.803 23.8622 174.468 22.2665 173.799 20.8715C173.13 19.4765 172.185 18.3872 170.962 17.6037C169.758 16.8202 168.343 16.4285 166.719 16.4285C164.617 16.4285 162.974 17.1069 161.789 18.4637C160.604 19.8205 160.012 21.6837 160.012 24.0533C160.012 25.8496 160.346 27.4931 161.015 28.9837C161.684 30.4551 162.62 31.6208 163.824 32.4808C165.028 33.3216 166.394 33.742 167.923 33.742ZM196.88 16.0845C196.937 16.0845 196.966 16.1418 196.966 16.2565C196.966 16.3711 196.937 16.4285 196.88 16.4285C196.23 16.4285 195.666 16.6005 195.189 16.9444C194.711 17.2884 194.31 17.8713 193.985 18.693L187.879 33.9713C187.86 34.0478 187.755 34.086 187.564 34.086C187.411 34.086 187.306 34.0478 187.249 33.9713L180.111 18.4637C179.786 17.7184 179.442 17.1929 179.079 16.8871C178.716 16.5814 178.248 16.4285 177.674 16.4285C177.617 16.4285 177.588 16.3711 177.588 16.2565C177.588 16.1418 177.617 16.0845 177.674 16.0845L178.764 16.1132C179.299 16.1514 179.729 16.1705 180.054 16.1705C180.818 16.1705 181.64 16.1514 182.519 16.1132L183.694 16.0845C183.751 16.0845 183.78 16.1418 183.78 16.2565C183.78 16.3711 183.751 16.4285 183.694 16.4285C183.102 16.4285 182.653 16.5049 182.347 16.6578C182.06 16.8107 181.917 17.0687 181.917 17.4317C181.917 17.6611 182.003 17.9668 182.175 18.349L188.166 31.4775L193.325 18.5497C193.478 18.1484 193.555 17.833 193.555 17.6037C193.555 17.2024 193.373 16.9062 193.01 16.7151C192.647 16.524 192.083 16.4285 191.319 16.4285C191.262 16.4285 191.233 16.3711 191.233 16.2565C191.233 16.1418 191.262 16.0845 191.319 16.0845L192.551 16.1132C193.201 16.1514 193.794 16.1705 194.329 16.1705C194.73 16.1705 195.179 16.1514 195.676 16.1132L196.88 16.0845ZM202.499 31.6782C202.499 32.2514 202.556 32.6814 202.671 32.9681C202.785 33.2356 203.005 33.4171 203.33 33.5127C203.674 33.6082 204.209 33.656 204.935 33.656C204.992 33.656 205.021 33.7134 205.021 33.828C205.021 33.9427 204.992 34 204.935 34C204.362 34 203.903 33.9904 203.559 33.9713L201.524 33.9427L199.546 33.9713C199.202 33.9904 198.734 34 198.142 34C198.084 34 198.056 33.9427 198.056 33.828C198.056 33.7134 198.084 33.656 198.142 33.656C198.868 33.656 199.393 33.6082 199.718 33.5127C200.062 33.4171 200.291 33.2356 200.406 32.9681C200.54 32.6814 200.607 32.2514 200.607 31.6782V18.4063C200.607 17.833 200.54 17.4126 200.406 17.1451C200.291 16.8776 200.062 16.696 199.718 16.6005C199.393 16.4858 198.868 16.4285 198.142 16.4285C198.084 16.4285 198.056 16.3711 198.056 16.2565C198.056 16.1418 198.084 16.0845 198.142 16.0845L199.546 16.1132C200.349 16.1514 201.008 16.1705 201.524 16.1705C202.097 16.1705 202.785 16.1514 203.588 16.1132L204.935 16.0845C204.992 16.0845 205.021 16.1418 205.021 16.2565C205.021 16.3711 204.992 16.4285 204.935 16.4285C204.228 16.4285 203.703 16.4858 203.359 16.6005C203.034 16.7151 202.804 16.9158 202.671 17.2024C202.556 17.47 202.499 17.8904 202.499 18.4637V31.6782ZM226.492 16.0845C226.549 16.0845 226.578 16.1418 226.578 16.2565C226.578 16.3711 226.549 16.4285 226.492 16.4285C225.689 16.4285 225.107 16.6482 224.743 17.0878C224.38 17.5273 224.199 18.2439 224.199 19.2376V34.344C224.199 34.3822 224.151 34.4109 224.055 34.43C223.96 34.4491 223.893 34.4395 223.855 34.4013L210.669 18.435L210.411 18.1484V30.8755C210.411 31.8692 210.583 32.5859 210.927 33.0254C211.29 33.4458 211.863 33.656 212.647 33.656C212.704 33.656 212.733 33.7134 212.733 33.828C212.733 33.9427 212.704 34 212.647 34C212.169 34 211.806 33.9904 211.558 33.9713L210.124 33.9427L208.662 33.9713C208.395 33.9904 208.003 34 207.487 34C207.449 34 207.43 33.9427 207.43 33.828C207.43 33.7134 207.449 33.656 207.487 33.656C208.309 33.656 208.892 33.4458 209.236 33.0254C209.58 32.5859 209.752 31.8692 209.752 30.8755V17.4604C209.006 16.7724 208.252 16.4285 207.487 16.4285C207.43 16.4285 207.401 16.3711 207.401 16.2565C207.401 16.1418 207.43 16.0845 207.487 16.0845L208.548 16.1132C208.777 16.1323 209.092 16.1418 209.494 16.1418C209.914 16.1418 210.258 16.1323 210.526 16.1132C210.793 16.094 211.003 16.0845 211.156 16.0845C211.309 16.0845 211.414 16.1227 211.472 16.1992C211.548 16.2565 211.663 16.3998 211.816 16.6291C212.045 16.9731 212.274 17.2884 212.504 17.5751L223.54 31.1335V19.2376C223.54 18.2439 223.368 17.5273 223.024 17.0878C222.699 16.6482 222.144 16.4285 221.361 16.4285C221.323 16.4285 221.304 16.3711 221.304 16.2565C221.304 16.1418 221.323 16.0845 221.361 16.0845L222.479 16.1132C223.052 16.1514 223.52 16.1705 223.883 16.1705C224.227 16.1705 224.705 16.1514 225.317 16.1132L226.492 16.0845ZM247.175 33.656C247.252 33.656 247.29 33.7134 247.29 33.828C247.29 33.9427 247.252 34 247.175 34C246.812 34 246.249 33.9809 245.484 33.9427C244.72 33.9045 244.166 33.8853 243.822 33.8853C243.401 33.8853 242.866 33.9045 242.216 33.9427C241.605 33.9809 241.137 34 240.812 34C240.735 34 240.697 33.9427 240.697 33.828C240.697 33.7134 240.735 33.656 240.812 33.656C241.519 33.656 242.035 33.5891 242.36 33.4554C242.685 33.3216 242.847 33.0923 242.847 32.7674C242.847 32.4999 242.723 32.089 242.474 31.5348L239.178 24.5119H233.76L231.295 30.3596C231.028 31.0093 230.894 31.5444 230.894 31.9648C230.894 33.0923 231.83 33.656 233.703 33.656C233.799 33.656 233.846 33.7134 233.846 33.828C233.846 33.9427 233.799 34 233.703 34C233.359 34 232.862 33.9809 232.212 33.9427C231.486 33.9045 230.856 33.8853 230.321 33.8853C229.824 33.8853 229.25 33.9045 228.601 33.9427C228.027 33.9809 227.55 34 227.167 34C227.072 34 227.024 33.9427 227.024 33.828C227.024 33.7134 227.072 33.656 227.167 33.656C227.702 33.656 228.152 33.5605 228.515 33.3694C228.897 33.1592 229.25 32.8056 229.575 32.3088C229.919 31.7928 230.292 31.0571 230.693 30.1016L236.741 15.8265C236.78 15.7692 236.847 15.7405 236.942 15.7405C237.038 15.7405 237.095 15.7692 237.114 15.8265L243.879 30.0729C244.529 31.4871 245.083 32.4425 245.542 32.9394C246 33.4171 246.545 33.656 247.175 33.656ZM234.018 23.91H238.891L236.311 18.4637L234.018 23.91Z" fill="#737373"/>
<path d="M46.9207 50.6197L46.069 58.3674H44.6767L46.069 46.3282L50.6553 54.6328L55.2417 46.3282L56.634 58.3674H55.2417L54.39 50.6197L50.6553 57.3027L46.9207 50.6197ZM65.0954 58.3674V57.057H70.8775V58.3674H65.0954ZM65.0954 48.2119V46.9015H70.8775V48.2119H65.0954ZM65.0954 52.7983V51.4879H70.5499V52.7983H65.0954ZM64.3255 46.9015H65.7178V58.3674H64.3255V46.9015ZM79.0642 46.9015H80.4565V58.3674H79.0642V46.9015ZM82.504 58.3674H79.8341V56.9751H82.504C83.1483 56.9751 83.7379 56.8769 84.273 56.6803C84.8081 56.4728 85.2667 56.1834 85.6489 55.8122C86.0311 55.43 86.326 54.9713 86.5334 54.4363C86.7409 53.9012 86.8447 53.3006 86.8447 52.6345C86.8447 51.9684 86.7409 51.3678 86.5334 50.8327C86.326 50.2976 86.0311 49.8444 85.6489 49.4732C85.2667 49.091 84.8081 48.8016 84.273 48.605C83.7379 48.3975 83.1483 48.2938 82.504 48.2938H79.8341V46.9015H82.504C83.6178 46.9015 84.6061 47.1417 85.4688 47.6222C86.3314 48.1027 87.0085 48.7743 87.4999 49.6369C87.9913 50.4887 88.237 51.4879 88.237 52.6345C88.237 53.7811 87.9913 54.7857 87.4999 55.6484C87.0085 56.5001 86.3314 57.1662 85.4688 57.6467C84.6061 58.1272 83.6178 58.3674 82.504 58.3674ZM95.9304 46.9015H97.3227V58.3674H95.9304V46.9015ZM106.497 52.6345C106.497 53.519 106.694 54.2998 107.087 54.9768C107.491 55.6538 108.015 56.1834 108.659 56.5656C109.304 56.9478 110.003 57.1389 110.756 57.1389C111.302 57.1389 111.799 57.068 112.247 56.926C112.705 56.784 113.12 56.5875 113.492 56.3363C113.863 56.0742 114.179 55.7739 114.442 55.4354V57.27C113.961 57.6959 113.437 58.0125 112.869 58.22C112.301 58.4275 111.597 58.5312 110.756 58.5312C109.959 58.5312 109.211 58.3893 108.512 58.1054C107.824 57.8105 107.218 57.401 106.694 56.8769C106.17 56.3418 105.76 55.7139 105.465 54.9932C105.171 54.2725 105.023 53.4862 105.023 52.6345C105.023 51.7827 105.171 50.9965 105.465 50.2758C105.76 49.5551 106.17 48.9326 106.694 48.4085C107.218 47.8734 107.824 47.4639 108.512 47.18C109.211 46.8851 109.959 46.7377 110.756 46.7377C111.597 46.7377 112.301 46.8414 112.869 47.0489C113.437 47.2564 113.961 47.5731 114.442 47.999V49.8335C114.179 49.495 113.863 49.2002 113.492 48.949C113.12 48.6869 112.705 48.4849 112.247 48.3429C111.799 48.201 111.302 48.13 110.756 48.13C110.003 48.13 109.304 48.3211 108.659 48.7033C108.015 49.0855 107.491 49.6151 107.087 50.2921C106.694 50.9583 106.497 51.739 106.497 52.6345ZM123.482 54.9277L123.973 53.6173H129.051L129.543 54.9277H123.482ZM126.48 49.4895L124.547 54.0431L124.416 54.338L122.712 58.3674H121.156L126.48 46.3282L131.803 58.3674H130.247L128.576 54.4363L128.445 54.1087L126.48 49.4895ZM138.931 46.9015H140.323V57.057H144.828V58.3674H138.931V46.9015ZM163.501 52.6345C163.501 53.519 163.697 54.2998 164.09 54.9768C164.494 55.6538 165.018 56.1834 165.663 56.5656C166.307 56.9478 167.006 57.1389 167.759 57.1389C168.305 57.1389 168.802 57.068 169.25 56.926C169.709 56.784 170.124 56.5875 170.495 56.3363C170.866 56.0742 171.183 55.7739 171.445 55.4354V57.27C170.964 57.6959 170.44 58.0125 169.872 58.22C169.305 58.4275 168.6 58.5312 167.759 58.5312C166.962 58.5312 166.214 58.3893 165.515 58.1054C164.827 57.8105 164.221 57.401 163.697 56.8769C163.173 56.3418 162.764 55.7139 162.469 54.9932C162.174 54.2725 162.026 53.4862 162.026 52.6345C162.026 51.7827 162.174 50.9965 162.469 50.2758C162.764 49.5551 163.173 48.9326 163.697 48.4085C164.221 47.8734 164.827 47.4639 165.515 47.18C166.214 46.8851 166.962 46.7377 167.759 46.7377C168.6 46.7377 169.305 46.8414 169.872 47.0489C170.44 47.2564 170.964 47.5731 171.445 47.999V49.8335C171.183 49.495 170.866 49.2002 170.495 48.949C170.124 48.6869 169.709 48.4849 169.25 48.3429C168.802 48.201 168.305 48.13 167.759 48.13C167.006 48.13 166.307 48.3211 165.663 48.7033C165.018 49.0855 164.494 49.6151 164.09 50.2921C163.697 50.9583 163.501 51.739 163.501 52.6345ZM180.398 58.3674V57.057H186.18V58.3674H180.398ZM180.398 48.2119V46.9015H186.18V48.2119H180.398ZM180.398 52.7983V51.4879H185.852V52.7983H180.398ZM179.628 46.9015H181.02V58.3674H179.628V46.9015ZM203.048 46.9015H204.44V58.9407L195.759 49.8335V58.3674H194.366V46.3282L203.048 55.4354V46.9015ZM211.654 48.2119V46.9015H218.943V48.2119H215.994V58.3674H214.602V48.2119H211.654ZM226.917 58.3674V57.057H232.699V58.3674H226.917ZM226.917 48.2119V46.9015H232.699V48.2119H226.917ZM226.917 52.7983V51.4879H232.372V52.7983H226.917ZM226.147 46.9015H227.54V58.3674H226.147V46.9015ZM242.934 52.7164H244.49L248.585 58.3674H246.865L242.934 52.7164ZM240.886 46.9015H242.278V58.3674H240.886V46.9015ZM241.656 48.13V46.9015H243.998C244.741 46.9015 245.401 47.0435 245.98 47.3274C246.57 47.6004 247.034 47.9935 247.372 48.5067C247.722 49.02 247.897 49.6315 247.897 50.3413C247.897 51.0402 247.722 51.6517 247.372 52.1758C247.034 52.6891 246.57 53.0876 245.98 53.3716C245.401 53.6446 244.741 53.7811 243.998 53.7811H241.656V52.5526H243.998C244.49 52.5526 244.921 52.4652 245.292 52.2905C245.674 52.1158 245.969 51.8646 246.177 51.537C246.395 51.2094 246.504 50.8108 246.504 50.3413C246.504 49.8717 246.395 49.4732 246.177 49.1456C245.969 48.818 245.674 48.5668 245.292 48.3921C244.921 48.2174 244.49 48.13 243.998 48.13H241.656Z" fill="white"/>
</g>
<defs>
<clipPath id="clip0_276_106">
<rect width="264" height="75" fill="white"/>
</clipPath>
</defs>
</svg>
